<?xml version="1.0" encoding="utf-8"?>
<!-- Generator: Adobe Illustrator 24.3.0, SVG Export Plug-In . SVG Version: 6.00 Build 0)  -->
<svg version="1.1" xmlns="http://www.w3.org/2000/svg" xmlns:xlink="http://www.w3.org/1999/xlink" x="0px" y="0px"
	 viewBox="0 0 500 500" style="enable-background:new 0 0 500 500;" xml:space="preserve">
<style type="text/css">
	.st0{fill:#FFFFFF;}
	.st1{fill:none;}
	.st2{fill:url(#SVGID_1_);}
	.st3{fill:url(#SVGID_2_);}
	.st4{fill:url(#SVGID_3_);}
	.st5{fill:url(#SVGID_4_);}
	.st6{fill:url(#SVGID_5_);}
	.st7{fill:url(#SVGID_6_);}
</style>
<g id="BACKGROUND">
	<rect x="0" y="0" class="st0" width="500" height="500"/>
</g>
<g id="OBJECTS">
	<path class="st1" d="M218.77,217.2c-5.54-3.49-11.9-5.24-19.09-5.24h-11.83v57.84c8.05-1.39,15.88-3.91,23.33-7.27
		c1.24-0.55,2.43-1.21,3.65-1.78l1.83-0.89l1.85-0.99c2.48-1.3,4.93-2.68,7.37-4.07c3.27-1.86,6.52-3.79,9.76-5.74
		c-0.39-6.33-1.78-12.11-4.22-17.33C228.53,225.54,224.31,220.7,218.77,217.2z"/>
	<path class="st1" d="M199.68,294.84c7.19,0,13.57-1.81,19.17-5.43c5.59-3.62,9.83-8.62,12.73-14.99c1.57-3.45,2.68-7.16,3.37-11.12
		c-1.1,0.62-2.2,1.24-3.31,1.85c-2.57,1.38-5.16,2.75-7.78,4.05l-1.96,0.99l-2.06,0.95c-1.38,0.62-2.74,1.27-4.14,1.83
		c-8.86,3.6-18.29,6.06-27.84,6.9v14.98H199.68z"/>
	<linearGradient id="SVGID_1_" gradientUnits="userSpaceOnUse" x1="247.3808" y1="239.4503" x2="144.5121" y2="227.2112">
		<stop  offset="4.102398e-07" style="stop-color:#878686"/>
		<stop  offset="0.5211" style="stop-color:#EAEAEA"/>
		<stop  offset="0.7807" style="stop-color:#848484"/>
	</linearGradient>
	<path class="st2" d="M187.85,263.81v-57.84h11.83c7.19,0,13.55,1.75,19.09,5.24c5.54,3.49,9.76,8.34,12.65,14.53
		c2.44,5.22,3.83,11,4.22,17.33c1.6-0.96,3.19-1.92,4.78-2.91c3.82-2.33,7.64-4.73,11.5-7.11c-1.15-3.62-2.75-7.07-4.86-10.32
		c-4.64-7.16-10.81-12.72-18.49-16.69c-7.69-3.97-15.87-5.96-24.56-5.96h-16.17h-5.69h-22.91v3.8h0.15
		c2.89,0.26,5.17,0.61,6.81,1.05c1.65,0.44,2.99,1.4,4.04,2.88c1.05,1.49,1.57,3.62,1.57,6.42v50.86c2.72,0.03,5.43-0.06,8.13-0.29
		C182.62,264.59,185.25,264.25,187.85,263.81z"/>
	<linearGradient id="SVGID_2_" gradientUnits="userSpaceOnUse" x1="266.6173" y1="212.7667" x2="300.4787" y2="212.7667">
		<stop  offset="0" style="stop-color:#FFE35F"/>
		<stop  offset="0" style="stop-color:#DE9F17"/>
		<stop  offset="0.3198" style="stop-color:#CF9A15"/>
		<stop  offset="0.6802" style="stop-color:#FFF68A"/>
		<stop  offset="1" style="stop-color:#FFCF45"/>
	</linearGradient>
	<path class="st3" d="M290,220.62v-7.22c0-2.6,0.43-4.55,1.28-5.85c0.85-1.3,1.95-2.17,3.29-2.62c1.34-0.45,3.15-0.83,5.42-1.16
		c0.16,0,0.32,0,0.49,0v-3.53h-33.86v3.53c0.16,0,0.32,0,0.49,0c2.27,0.33,4.06,0.69,5.36,1.1c1.3,0.41,2.38,1.28,3.23,2.62
		s1.28,3.31,1.28,5.91v11.89c3.23-1.43,6.55-2.73,9.98-3.79C287.96,221.19,288.98,220.9,290,220.62z"/>
	<linearGradient id="SVGID_3_" gradientUnits="userSpaceOnUse" x1="116.3763" y1="249.1191" x2="370.8285" y2="249.1191">
		<stop  offset="0" style="stop-color:#FFE35F"/>
		<stop  offset="0" style="stop-color:#DE9F17"/>
		<stop  offset="0.3198" style="stop-color:#CF9A15"/>
		<stop  offset="0.6802" style="stop-color:#FFF68A"/>
		<stop  offset="1" style="stop-color:#FFCF45"/>
	</linearGradient>
	<path class="st4" d="M363.56,236.03l-3.74-2.18c-1.25-0.74-2.5-1.46-3.79-2.12l-3.85-2.04c-1.29-0.67-2.62-1.25-3.94-1.89
		c-2.62-1.29-5.35-2.33-8.06-3.46c-5.5-2.06-11.18-3.81-17.07-4.94c-5.89-1.12-12-1.58-18.12-1.24c-3.06,0.17-6.11,0.54-9.13,1.1
		c-1.97,0.37-3.92,0.83-5.85,1.36c-1.02,0.28-2.04,0.57-3.05,0.88c-3.43,1.06-6.75,2.36-9.98,3.79c-2.26,1-4.49,2.07-6.67,3.18
		c-6.39,3.3-12.44,6.92-18.37,10.58c-3.86,2.38-7.68,4.78-11.5,7.11c-1.59,0.99-3.19,1.94-4.78,2.91c-3.24,1.96-6.49,3.88-9.76,5.74
		c-2.44,1.39-4.89,2.76-7.37,4.07l-1.85,0.99l-1.83,0.89c-1.22,0.58-2.42,1.23-3.65,1.78c-7.45,3.35-15.28,5.88-23.33,7.27
		c-2.61,0.45-5.24,0.78-7.89,0.98c-2.7,0.22-5.41,0.31-8.13,0.29c-8.19-0.09-16.44-1.29-24.52-3.47
		c-10.74-2.97-21.25-7.46-30.94-13.69c3.99,4.19,8.62,7.75,13.49,10.97c4.87,3.22,10.1,5.96,15.54,8.26
		c8.34,3.47,17.28,5.75,26.43,6.63c2.82,0.27,5.65,0.41,8.5,0.4c2.51,0.01,5.02-0.1,7.52-0.32c9.55-0.84,18.97-3.29,27.84-6.9
		c1.4-0.56,2.76-1.21,4.14-1.83l2.06-0.95l1.96-0.99c2.62-1.3,5.21-2.67,7.78-4.05c1.11-0.61,2.21-1.23,3.31-1.85
		c3.98-2.25,7.9-4.57,11.77-6.93l7.28-4.58l7.28-4.58c4.79-3.06,9.57-6,14.39-8.7c0.43-0.24,0.87-0.47,1.3-0.71
		c4.27-2.35,8.61-4.42,13.03-6.13c0.13-0.05,0.25-0.11,0.38-0.15c5.02-1.88,10.18-3.24,15.47-3.95c5.29-0.71,10.71-0.81,16.17-0.34
		c5.46,0.49,10.93,1.48,16.39,2.76c2.72,0.71,5.46,1.37,8.15,2.22c1.35,0.41,2.73,0.78,4.07,1.23l4.05,1.34
		c5.41,1.81,10.74,3.91,16.14,5.95C368.43,239.13,366.01,237.57,363.56,236.03z"/>
	<g>
		<path class="st1" d="M363.39,385.42"/>
	</g>
	<g>
		<path class="st1" d="M263.64,412.82"/>
	</g>
	<linearGradient id="SVGID_4_" gradientUnits="userSpaceOnUse" x1="159.255" y1="286.8996" x2="249.6482" y2="286.8996">
		<stop  offset="0" style="stop-color:#FFE35F"/>
		<stop  offset="0" style="stop-color:#DE9F17"/>
		<stop  offset="0.3198" style="stop-color:#CF9A15"/>
		<stop  offset="0.6802" style="stop-color:#FFF68A"/>
		<stop  offset="1" style="stop-color:#FFCF45"/>
	</linearGradient>
	<path class="st5" d="M240.65,277.18c-1.24,0.46-2.49,0.88-3.73,1.32c-1.24,0.45-2.5,0.83-3.76,1.19c-1.26,0.35-2.51,0.75-3.79,1.05
		c-0.58,0.15-1.17,0.28-1.75,0.42c-2.42,3.27-5.34,6.02-8.78,8.25c-5.59,3.62-11.98,5.43-19.17,5.43h-11.83v-14.98
		c-2.5,0.22-5.01,0.33-7.52,0.32c-2.84,0.01-5.68-0.13-8.5-0.4v6.82c0,2.79-0.52,4.93-1.57,6.42c-1.05,1.49-2.4,2.44-4.04,2.88
		c-1.65,0.44-3.97,0.79-6.96,1.05v3.8h23.81h4.79h16.17c8.78,0,16.99-2.01,24.63-6.02c7.64-4.01,13.78-9.67,18.42-16.96
		c0.97-1.52,1.81-3.09,2.57-4.69c-1.75,0.92-3.54,1.77-5.32,2.58L240.65,277.18z"/>
	<linearGradient id="SVGID_5_" gradientUnits="userSpaceOnUse" x1="257.2384" y1="274.6616" x2="290.0031" y2="274.6616">
		<stop  offset="0" style="stop-color:#FFE35F"/>
		<stop  offset="0" style="stop-color:#DE9F17"/>
		<stop  offset="0.3198" style="stop-color:#CF9A15"/>
		<stop  offset="0.6802" style="stop-color:#FFF68A"/>
		<stop  offset="1" style="stop-color:#FFCF45"/>
	</linearGradient>
	<path class="st6" d="M276.97,253.17v17.36c0,5.93-0.45,10.92-1.34,14.98c-0.89,4.06-2.78,7.53-5.66,10.41
		c-2.88,2.88-7.13,4.77-12.73,5.66l1.1,2.68c6.5,0.49,12.12-0.26,16.87-2.25c4.75-1.99,8.4-5.52,10.96-10.6
		c2.56-5.07,3.84-12.04,3.84-20.89v-25.61c-2.63,1.42-5.19,2.96-7.7,4.59C280.51,250.69,278.73,251.92,276.97,253.17z"/>
	<linearGradient id="SVGID_6_" gradientUnits="userSpaceOnUse" x1="198.5155" y1="260.7421" x2="309.5544" y2="260.7421">
		<stop  offset="0" style="stop-color:#FFE35F"/>
		<stop  offset="0" style="stop-color:#DE9F17"/>
		<stop  offset="0.3198" style="stop-color:#CF9A15"/>
		<stop  offset="0.6802" style="stop-color:#FFF68A"/>
		<stop  offset="1" style="stop-color:#FFCF45"/>
	</linearGradient>
	<path class="st7" d="M309.55,237.78c-5.11-0.93-10.48-0.69-15.7,0.34c-1.3,0.26-2.58,0.57-3.86,0.92
		c-3.85,1.08-7.57,2.58-11.15,4.28c-0.64,0.3-1.25,0.63-1.88,0.95c-4.08,2.07-7.97,4.43-11.73,6.95c-2.15,1.47-4.26,2.99-6.34,4.53
		c-1.05,0.77-2.05,1.58-3.07,2.37c-0.76,0.6-1.53,1.21-2.26,1.75c-0.24,0.18-0.48,0.36-0.72,0.52c-0.95,0.69-1.87,1.42-2.83,2.1
		l-3.02,1.91c-0.97,0.68-2.08,1.21-3.12,1.82c-1.06,0.59-2.1,1.2-3.2,1.72c-2.58,1.37-5.26,2.59-7.99,3.77
		c-1.82,0.79-3.65,1.55-5.49,2.32c-9.26,3.72-18.86,6.88-28.68,10.13c5.19,0.31,10.37-0.03,15.52-0.59
		c4.56-0.54,9.1-1.33,13.59-2.41c0.58-0.14,1.17-0.27,1.75-0.42c1.27-0.3,2.52-0.7,3.79-1.05c1.26-0.37,2.52-0.74,3.76-1.19
		c1.24-0.44,2.5-0.86,3.73-1.32l3.67-1.54c1.79-0.81,3.57-1.66,5.32-2.58c3-1.58,5.93-3.37,8.68-5.52c1.15-0.83,2.09-1.62,3.07-2.4
		c0.98-0.79,1.95-1.58,2.94-2.35l2.93-2.34c0.99-0.76,1.98-1.51,2.96-2.29c2.22-1.71,4.47-3.37,6.74-4.99
		c1.76-1.25,3.54-2.48,5.34-3.66c2.51-1.63,5.07-3.18,7.7-4.59c1.7-0.92,3.42-1.79,5.19-2.57
		C299.7,240.33,304.47,238.83,309.55,237.78z"/>
</g>
<g id="DESIGNED_BY_FREEPIK">
</g>
</svg>
